<svg width="13" height="17" viewBox="0 0 13 17" fill="none" xmlns="http://www.w3.org/2000/svg">
<path d="M12.5726 5.68278C12.0517 6.00168 11.6202 6.44753 11.3186 6.97859C11.0169 7.50965 10.8549 8.10856 10.8478 8.71928C10.8498 9.40663 11.0535 10.0783 11.4335 10.651C11.8135 11.2238 12.3532 11.6725 12.9857 11.9416C12.7363 12.7462 12.3672 13.5086 11.8909 14.2034C11.2093 15.1846 10.4966 16.1657 9.41217 16.1657C8.32777 16.1657 8.04887 15.5357 6.79917 15.5357C5.58047 15.5357 5.14667 16.1864 4.15517 16.1864C3.16367 16.1864 2.47177 15.2775 1.67647 14.1621C0.62594 12.5995 0.0485817 10.767 0.0136719 8.88448C0.0136719 5.78608 2.02767 4.14398 4.01057 4.14398C5.06407 4.14398 5.94197 4.83588 6.60297 4.83588C7.23297 4.83588 8.21417 4.10258 9.41217 4.10258C10.0281 4.08668 10.6386 4.2225 11.1897 4.49806C11.7408 4.77362 12.2157 5.18047 12.5726 5.68278ZM8.84417 2.79098C9.37227 2.16974 9.67122 1.3861 9.69107 0.570976C9.69197 0.463519 9.68158 0.356264 9.66007 0.250977C8.75293 0.33959 7.91408 0.771951 7.31557 1.45938C6.78238 2.05586 6.47217 2.81857 6.43767 3.61788C6.43807 3.71508 6.44846 3.81199 6.46867 3.90708C6.54019 3.9206 6.61279 3.92752 6.68557 3.92778C7.10365 3.89451 7.51059 3.77658 7.88167 3.58115C8.25275 3.38573 8.58022 3.11689 8.84417 2.79098Z" fill="black" fill-opacity="0.8"/>
</svg>
