<svg width="32" height="44" viewBox="0 0 32 44" fill="none" xmlns="http://www.w3.org/2000/svg">
<path d="M22.7982 27.2022L18.9282 23.3322C19.6292 22.4032 20.0502 21.2512 20.0502 20.0002C20.0502 16.9402 17.5612 14.4502 14.5002 14.4502C11.4402 14.4502 8.9502 16.9402 8.9502 20.0002C8.9502 23.0612 11.4402 25.5502 14.5002 25.5502C15.7512 25.5502 16.9032 25.1292 17.8322 24.4282L21.7022 28.2982C21.8532 28.4492 22.0522 28.5262 22.2502 28.5262C22.4482 28.5262 22.6462 28.4502 22.7982 28.2982C23.1012 27.9952 23.1012 27.5052 22.7982 27.2022ZM10.0502 20.0002C10.0502 17.5462 12.0472 15.5502 14.5002 15.5502C16.9542 15.5502 18.9502 17.5472 18.9502 20.0002C18.9502 22.4532 16.9542 24.4502 14.5002 24.4502C12.0462 24.4502 10.0502 22.4542 10.0502 20.0002Z" fill="black" fill-opacity="0.8"/>
</svg>
