<svg width="31" height="44" viewBox="0 0 31 44" fill="none" xmlns="http://www.w3.org/2000/svg">
<path d="M19.8533 16.0283H18.8328C18.7234 15.2173 18.327 14.4723 17.7156 13.9284C17.1041 13.3845 16.318 13.0776 15.4998 13.0635C14.6815 13.0776 13.8955 13.3845 13.284 13.9284C12.6725 14.4723 12.2762 15.2173 12.1668 16.0283H11.1468C10.5856 16.0286 10.0474 16.2517 9.65053 16.6485C9.25362 17.0452 9.03037 17.5833 9.02979 18.1445V25.86C9.03029 26.4211 9.25339 26.9591 9.65013 27.356C10.0469 27.7528 10.5848 27.976 11.146 27.9767H19.853C20.4142 27.9762 20.9524 27.753 21.3492 27.3562C21.7461 26.9593 21.9693 26.4212 21.9698 25.86V18.1445C21.9692 17.5834 21.746 17.0454 21.3492 16.6486C20.9524 16.2519 20.4144 16.0288 19.8533 16.0283ZM15.4998 14.1631C16.0272 14.1745 16.5349 14.3656 16.939 14.7048C17.343 15.0439 17.6193 15.5108 17.722 16.0283H13.2776C13.3803 15.5108 13.6565 15.0439 14.0606 14.7048C14.4647 14.3656 14.9724 14.1745 15.4998 14.1631ZM20.8698 25.86C20.8695 26.1296 20.7623 26.388 20.5717 26.5787C20.3812 26.7693 20.1228 26.8767 19.8532 26.8771H11.1463C10.8767 26.8766 10.6183 26.7693 10.4278 26.5786C10.2372 26.388 10.1301 26.1295 10.1298 25.86V18.1445C10.1301 17.875 10.2373 17.6166 10.4279 17.426C10.6185 17.2354 10.8769 17.1282 11.1464 17.1279H19.8534C20.1229 17.1282 20.3812 17.2355 20.5718 17.4261C20.7623 17.6166 20.8695 17.875 20.8698 18.1445V25.86Z" fill="black" fill-opacity="0.8"/>
</svg>
