<svg width="31" height="44" viewBox="0 0 31 44" fill="none" xmlns="http://www.w3.org/2000/svg">
<path d="M21.086 17.4538C20.564 17.774 20.1316 18.2217 19.8293 18.7549C19.527 19.2881 19.3647 19.8894 19.3575 20.5026C19.3595 21.1928 19.5636 21.8671 19.9445 22.4422C20.3253 23.0173 20.8661 23.4678 21.5 23.738C21.2501 24.5458 20.8802 25.3114 20.4028 26.009C19.7198 26.9941 19.0055 27.9792 17.9188 27.9792C16.832 27.9792 16.5525 27.3467 15.3001 27.3467C14.0788 27.3467 13.6441 28 12.6504 28C11.6568 28 10.9634 27.0874 10.1664 25.9675C9.11359 24.3986 8.53499 22.5587 8.5 20.6685C8.5 17.5575 10.5183 15.9088 12.5055 15.9088C13.5613 15.9088 14.4411 16.6035 15.1035 16.6035C15.7349 16.6035 16.7182 15.8672 17.9188 15.8672C18.5361 15.8513 19.1478 15.9876 19.7001 16.2643C20.2524 16.541 20.7284 16.9495 21.086 17.4538ZM17.3496 14.5503C17.8788 13.9265 18.1784 13.1397 18.1983 12.3213C18.1992 12.2134 18.1888 12.1057 18.1672 12C17.2581 12.089 16.4175 12.5231 15.8177 13.2133C15.2833 13.8122 14.9724 14.578 14.9379 15.3805C14.9383 15.4782 14.9487 15.5755 14.9689 15.6709C15.0406 15.6845 15.1134 15.6915 15.1863 15.6917C15.6053 15.6583 16.0131 15.5399 16.385 15.3437C16.7569 15.1475 17.085 14.8775 17.3496 14.5503Z" fill="black" fill-opacity="0.8"/>
</svg>
