<svg width="10" height="4" viewBox="0 0 10 4" fill="none" xmlns="http://www.w3.org/2000/svg">
<path d="M1.98088 1.852C1.98088 2.036 1.91888 2.19 1.79488 2.314C1.67488 2.438 1.52088 2.5 1.33288 2.5C1.14488 2.5 0.988875 2.438 0.864875 2.314C0.744875 2.19 0.684875 2.036 0.684875 1.852C0.684875 1.664 0.744875 1.51 0.864875 1.39C0.988875 1.266 1.14488 1.204 1.33288 1.204C1.52088 1.204 1.67488 1.266 1.79488 1.39C1.91888 1.51 1.98088 1.664 1.98088 1.852ZM7.7997 2.278H9.1077V2.686H7.7997V4H7.3917V2.686H6.0837V2.278H7.3917V0.964H7.7997V2.278Z" fill="#6E6E73"/>
</svg>
